<svg id="Layer_1" data-name="Layer 1" xmlns="http://www.w3.org/2000/svg" xmlns:xlink="http://www.w3.org/1999/xlink" viewBox="0 0 800 800"><defs><style>.cls-1,.cls-3{fill:none;}.cls-2{clip-path:url(#clip-path);}.cls-3{stroke:#000;stroke-miterlimit:10;stroke-width:7px;}.cls-4{fill:url(#New_Pattern);}</style><clipPath id="clip-path"><rect class="cls-1" y="0.0001" width="227.2238" height="393.5189"/></clipPath><pattern id="New_Pattern" data-name="New Pattern" width="227.2238" height="393.5189" patternTransform="translate(132.1392 -56.8759) scale(0.7407)" patternUnits="userSpaceOnUse" viewBox="0 0 227.224 393.519"><rect class="cls-1" width="227.2238" height="393.5189"/><g class="cls-2"><line class="cls-3" x1="202.6296" y1="395.5682" x2="187.4103" y2="421.9286"/><line class="cls-3" x1="202.6296" y1="395.5682" x2="187.4103" y2="421.9286"/><path class="cls-3" d="M113.6263,296.17a113.5979,113.5979,0,0,0,34.0079,81.055"/><line class="cls-3" x1="153.4402" y1="367.1687" x2="138.221" y2="393.5292"/><line class="cls-3" x1="153.4402" y1="367.1687" x2="138.221" y2="393.5292"/><path class="cls-3" d="M113.6263,407.7289a28.4,28.4,0,0,0,24.5947-14.2"/><line class="cls-3" x1="178.0349" y1="381.3684" x2="162.8157" y2="407.7289"/><path class="cls-3" d="M227.2242,381.3684a28.4,28.4,0,0,0-24.5947,14.2"/><line class="cls-3" x1="202.6296" y1="395.5682" x2="187.4103" y2="421.9286"/><path class="cls-3" d="M113.6263,407.7289a28.4,28.4,0,0,0,24.5947-14.2"/><line class="cls-3" x1="153.4402" y1="367.1687" x2="138.221" y2="393.5292"/><path class="cls-3" d="M227.2242,381.3684a28.4,28.4,0,0,0-24.5947,14.2"/><line class="cls-3" x1="178.0349" y1="381.3684" x2="162.8157" y2="407.7289"/><line class="cls-3" x1="202.6296" y1="395.5682" x2="187.4103" y2="421.9286"/><line class="cls-3" x1="202.6296" y1="395.5682" x2="187.4103" y2="421.9286"/><line class="cls-3" x1="202.6296" y1="395.5682" x2="187.4103" y2="421.9286"/><line class="cls-3" x1="153.4402" y1="367.1687" x2="138.221" y2="393.5292"/><line class="cls-3" x1="153.4402" y1="367.1687" x2="138.221" y2="393.5292"/><path class="cls-3" d="M113.6263,407.7289a28.4,28.4,0,0,0,24.5947-14.2"/><line class="cls-3" x1="178.0349" y1="381.3684" x2="162.8157" y2="407.7289"/><path class="cls-3" d="M227.2242,381.3684a28.4,28.4,0,0,0-24.5947,14.2"/><line class="cls-3" x1="202.6296" y1="395.5682" x2="187.4103" y2="421.9286"/><path class="cls-3" d="M113.6263,296.17a113.5979,113.5979,0,0,0,34.0079,81.055"/><line class="cls-3" x1="153.4402" y1="367.1687" x2="138.221" y2="393.5292"/><path class="cls-3" d="M113.6263,407.7289a28.4,28.4,0,0,0,24.5947-14.2"/><line class="cls-3" x1="178.0349" y1="381.3684" x2="162.8157" y2="407.7289"/><path class="cls-3" d="M227.2242,381.3684a28.4,28.4,0,0,0-24.5947,14.2"/><line class="cls-3" x1="202.6296" y1="395.5682" x2="187.4103" y2="421.9286"/><line class="cls-3" x1="83.2257" y1="383.4729" x2="79.6184" y2="377.225"/><path class="cls-3" d="M113.6263,296.17a113.5979,113.5979,0,0,0,34.0079,81.055"/><line class="cls-3" x1="153.4402" y1="367.1687" x2="138.221" y2="393.5292"/><line class="cls-3" x1="153.4402" y1="367.1687" x2="138.221" y2="393.5292"/><path class="cls-3" d="M113.6263,407.7289a28.4,28.4,0,0,0,24.5947-14.2"/><line class="cls-3" x1="178.0349" y1="381.3684" x2="162.8157" y2="407.7289"/><path class="cls-3" d="M227.2242,381.3684a28.4,28.4,0,0,0-24.5947,14.2"/><line class="cls-3" x1="202.6296" y1="395.5682" x2="187.4103" y2="421.9286"/><line class="cls-3" x1="34.0363" y1="411.8723" x2="30.4291" y2="405.6245"/><line class="cls-3" x1="83.2257" y1="383.4729" x2="79.6184" y2="377.225"/><line class="cls-3" x1="153.4402" y1="367.1687" x2="138.221" y2="393.5292"/><path class="cls-3" d="M113.6263,296.17a113.5979,113.5979,0,0,0,34.0079,81.055"/><line class="cls-3" x1="34.0363" y1="411.8723" x2="30.4291" y2="405.6245"/><path class="cls-3" d="M113.6263,407.7289a28.4,28.4,0,0,0,24.5947-14.2"/><line class="cls-3" x1="153.4402" y1="367.1687" x2="138.221" y2="393.5292"/><line class="cls-3" x1="83.2257" y1="383.4729" x2="79.6184" y2="377.225"/><line class="cls-3" x1="202.6296" y1="395.5682" x2="187.4103" y2="421.9286"/><path class="cls-3" d="M113.6263,296.17a113.5979,113.5979,0,0,0,34.0079,81.055"/><line class="cls-3" x1="153.4402" y1="367.1687" x2="138.221" y2="393.5292"/><line class="cls-3" x1="153.4402" y1="367.1687" x2="138.221" y2="393.5292"/><path class="cls-3" d="M113.6263,407.7289a28.4,28.4,0,0,0,24.5947-14.2"/><line class="cls-3" x1="178.0349" y1="381.3684" x2="162.8157" y2="407.7289"/><path class="cls-3" d="M227.2242,381.3684a28.4,28.4,0,0,0-24.5947,14.2"/><line class="cls-3" x1="202.6296" y1="395.5682" x2="187.4103" y2="421.9286"/><path class="cls-3" d="M113.6263,296.17a113.5979,113.5979,0,0,0,34.0079,81.055"/><line class="cls-3" x1="153.4402" y1="367.1687" x2="138.221" y2="393.5292"/><line class="cls-3" x1="153.4402" y1="367.1687" x2="138.221" y2="393.5292"/><path class="cls-3" d="M113.6263,407.7289a28.4,28.4,0,0,0,24.5947-14.2"/><line class="cls-3" x1="178.0349" y1="381.3684" x2="162.8157" y2="407.7289"/><path class="cls-3" d="M227.2242,381.3684a28.4,28.4,0,0,0-24.5947,14.2"/><line class="cls-3" x1="202.6296" y1="395.5682" x2="187.4103" y2="421.9286"/><path class="cls-3" d="M113.6263,296.17a113.5979,113.5979,0,0,0,34.0079,81.055"/><line class="cls-3" x1="153.4402" y1="367.1687" x2="138.221" y2="393.5292"/><line class="cls-3" x1="153.4402" y1="367.1687" x2="138.221" y2="393.5292"/><path class="cls-3" d="M113.6263,407.7289a28.4,28.4,0,0,0,24.5947-14.2"/><line class="cls-3" x1="178.0349" y1="381.3684" x2="162.8157" y2="407.7289"/><path class="cls-3" d="M227.2242,381.3684a28.4,28.4,0,0,0-24.5947,14.2"/><line class="cls-3" x1="202.6296" y1="395.5682" x2="187.4103" y2="421.9286"/><path class="cls-3" d="M113.6263,296.17a113.5979,113.5979,0,0,0,34.0079,81.055"/><line class="cls-3" x1="153.4402" y1="367.1687" x2="138.221" y2="393.5292"/><line class="cls-3" x1="153.4402" y1="367.1687" x2="138.221" y2="393.5292"/><path class="cls-3" d="M113.6263,407.7289a28.4,28.4,0,0,0,24.5947-14.2"/><line class="cls-3" x1="178.0349" y1="381.3684" x2="162.8157" y2="407.7289"/><path class="cls-3" d="M227.2242,381.3684a28.4,28.4,0,0,0-24.5947,14.2"/><line class="cls-3" x1="202.6296" y1="395.5682" x2="187.4103" y2="421.9286"/><path class="cls-3" d="M113.6263,296.17a113.5979,113.5979,0,0,0,34.0079,81.055"/><line class="cls-3" x1="153.4402" y1="367.1687" x2="138.221" y2="393.5292"/><line class="cls-3" x1="153.4402" y1="367.1687" x2="138.221" y2="393.5292"/><path class="cls-3" d="M113.6263,407.7289a28.4,28.4,0,0,0,24.5947-14.2"/><line class="cls-3" x1="178.0349" y1="381.3684" x2="162.8157" y2="407.7289"/><path class="cls-3" d="M227.2242,381.3684a28.4,28.4,0,0,0-24.5947,14.2"/><line class="cls-3" x1="202.6296" y1="395.5682" x2="187.4103" y2="421.9286"/><path class="cls-3" d="M113.6263,296.17a113.5979,113.5979,0,0,0,34.0079,81.055"/><line class="cls-3" x1="153.4402" y1="367.1687" x2="138.221" y2="393.5292"/><line class="cls-3" x1="153.4402" y1="367.1687" x2="138.221" y2="393.5292"/><path class="cls-3" d="M113.6263,407.7289a28.4,28.4,0,0,0,24.5947-14.2"/><line class="cls-3" x1="178.0349" y1="381.3684" x2="162.8157" y2="407.7289"/><path class="cls-3" d="M227.2242,381.3684a28.4,28.4,0,0,0-24.5947,14.2"/><line class="cls-3" x1="202.6296" y1="395.5682" x2="187.4103" y2="421.9286"/><path class="cls-3" d="M113.6263,296.17a113.5979,113.5979,0,0,0,34.0079,81.055"/><line class="cls-3" x1="153.4402" y1="367.1687" x2="138.221" y2="393.5292"/><line class="cls-3" x1="153.4402" y1="367.1687" x2="138.221" y2="393.5292"/><path class="cls-3" d="M113.6263,407.7289a28.4,28.4,0,0,0,24.5947-14.2"/><line class="cls-3" x1="178.0349" y1="381.3684" x2="162.8157" y2="407.7289"/><path class="cls-3" d="M227.2242,381.3684a28.4,28.4,0,0,0-24.5947,14.2"/><line class="cls-3" x1="202.6296" y1="395.5682" x2="187.4103" y2="421.9286"/><path class="cls-3" d="M113.6263,296.17a113.5979,113.5979,0,0,0,34.0079,81.055"/><line class="cls-3" x1="153.4402" y1="367.1687" x2="138.221" y2="393.5292"/><line class="cls-3" x1="153.4402" y1="367.1687" x2="138.221" y2="393.5292"/><path class="cls-3" d="M113.6263,407.7289a28.4,28.4,0,0,0,24.5947-14.2"/><line class="cls-3" x1="178.0349" y1="381.3684" x2="162.8157" y2="407.7289"/><path class="cls-3" d="M227.2242,381.3684a28.4,28.4,0,0,0-24.5947,14.2"/><line class="cls-3" x1="202.6296" y1="395.5682" x2="187.4103" y2="421.9286"/><path class="cls-3" d="M113.6263,296.17a113.5979,113.5979,0,0,0,34.0079,81.055"/><line class="cls-3" x1="153.4402" y1="367.1687" x2="138.221" y2="393.5292"/><line class="cls-3" x1="153.4402" y1="367.1687" x2="138.221" y2="393.5292"/><path class="cls-3" d="M113.6263,407.7289a28.4,28.4,0,0,0,24.5947-14.2"/><line class="cls-3" x1="178.0349" y1="381.3684" x2="162.8157" y2="407.7289"/><path class="cls-3" d="M227.2242,381.3684a28.4,28.4,0,0,0-24.5947,14.2"/><line class="cls-3" x1="202.6296" y1="395.5682" x2="187.4103" y2="421.9286"/><path class="cls-3" d="M113.6263,296.17a113.5979,113.5979,0,0,0,34.0079,81.055"/><line class="cls-3" x1="153.4402" y1="367.1687" x2="138.221" y2="393.5292"/><line class="cls-3" x1="153.4402" y1="367.1687" x2="138.221" y2="393.5292"/><path class="cls-3" d="M113.6263,407.7289a28.4,28.4,0,0,0,24.5947-14.2"/><line class="cls-3" x1="178.0349" y1="381.3684" x2="162.8157" y2="407.7289"/><path class="cls-3" d="M227.2242,381.3684a28.4,28.4,0,0,0-24.5947,14.2"/><line class="cls-3" x1="202.6296" y1="395.5682" x2="187.4103" y2="421.9286"/><path class="cls-3" d="M113.6263,296.17a113.5979,113.5979,0,0,0,34.0079,81.055"/><line class="cls-3" x1="153.4402" y1="367.1687" x2="138.221" y2="393.5292"/><line class="cls-3" x1="153.4402" y1="367.1687" x2="138.221" y2="393.5292"/><path class="cls-3" d="M113.6263,407.7289a28.4,28.4,0,0,0,24.5947-14.2"/><line class="cls-3" x1="178.0349" y1="381.3684" x2="162.8157" y2="407.7289"/><path class="cls-3" d="M227.2242,381.3684a28.4,28.4,0,0,0-24.5947,14.2"/><line class="cls-3" x1="202.6296" y1="395.5682" x2="187.4103" y2="421.9286"/><path class="cls-3" d="M113.6263,296.17a113.5979,113.5979,0,0,0,34.0079,81.055"/><line class="cls-3" x1="153.4402" y1="367.1687" x2="138.221" y2="393.5292"/><line class="cls-3" x1="153.4402" y1="367.1687" x2="138.221" y2="393.5292"/><path class="cls-3" d="M113.6263,407.7289a28.4,28.4,0,0,0,24.5947-14.2"/><line class="cls-3" x1="178.0349" y1="381.3684" x2="162.8157" y2="407.7289"/><path class="cls-3" d="M227.2242,381.3684a28.4,28.4,0,0,0-24.5947,14.2"/><line class="cls-3" x1="202.6296" y1="395.5682" x2="187.4103" y2="421.9286"/><path class="cls-3" d="M113.6263,296.17a113.5979,113.5979,0,0,0,34.0079,81.055"/><line class="cls-3" x1="153.4402" y1="367.1687" x2="138.221" y2="393.5292"/><line class="cls-3" x1="153.4402" y1="367.1687" x2="138.221" y2="393.5292"/><path class="cls-3" d="M113.6263,407.7289a28.4,28.4,0,0,0,24.5947-14.2"/><line class="cls-3" x1="178.0349" y1="381.3684" x2="162.8157" y2="407.7289"/><path class="cls-3" d="M227.2242,381.3684a28.4,28.4,0,0,0-24.5947,14.2"/><line class="cls-3" x1="202.6296" y1="395.5682" x2="187.4103" y2="421.9286"/><path class="cls-3" d="M113.6263,296.17a113.5979,113.5979,0,0,0,34.0079,81.055"/><line class="cls-3" x1="153.4402" y1="367.1687" x2="138.221" y2="393.5292"/><line class="cls-3" x1="153.4402" y1="367.1687" x2="138.221" y2="393.5292"/><path class="cls-3" d="M113.6263,407.7289a28.4,28.4,0,0,0,24.5947-14.2"/><line class="cls-3" x1="178.0349" y1="381.3684" x2="162.8157" y2="407.7289"/><path class="cls-3" d="M227.2242,381.3684a28.4,28.4,0,0,0-24.5947,14.2"/><line class="cls-3" x1="202.6296" y1="395.5682" x2="187.4103" y2="421.9286"/><path class="cls-3" d="M113.6263,296.17a113.5979,113.5979,0,0,0,34.0079,81.055"/><line class="cls-3" x1="153.4402" y1="367.1687" x2="138.221" y2="393.5292"/><line class="cls-3" x1="153.4402" y1="367.1687" x2="138.221" y2="393.5292"/><path class="cls-3" d="M113.6263,407.7289a28.4,28.4,0,0,0,24.5947-14.2"/><line class="cls-3" x1="178.0349" y1="381.3684" x2="162.8157" y2="407.7289"/><path class="cls-3" d="M227.2242,381.3684a28.4,28.4,0,0,0-24.5947,14.2"/><line class="cls-3" x1="202.6296" y1="395.5682" x2="187.4103" y2="421.9286"/><path class="cls-3" d="M113.6263,296.17a113.5979,113.5979,0,0,0,34.0079,81.055"/><line class="cls-3" x1="153.4402" y1="367.1687" x2="138.221" y2="393.5292"/><line class="cls-3" x1="153.4402" y1="367.1687" x2="138.221" y2="393.5292"/><path class="cls-3" d="M113.6263,407.7289a28.4,28.4,0,0,0,24.5947-14.2"/><line class="cls-3" x1="178.0349" y1="381.3684" x2="162.8157" y2="407.7289"/><path class="cls-3" d="M227.2242,381.3684a28.4,28.4,0,0,0-24.5947,14.2"/><line class="cls-3" x1="202.6296" y1="395.5682" x2="187.4103" y2="421.9286"/><path class="cls-3" d="M113.6263,296.17a113.5979,113.5979,0,0,0,34.0079,81.055"/><line class="cls-3" x1="153.4402" y1="367.1687" x2="138.221" y2="393.5292"/><line class="cls-3" x1="153.4402" y1="367.1687" x2="138.221" y2="393.5292"/><path class="cls-3" d="M113.6263,407.7289a28.4,28.4,0,0,0,24.5947-14.2"/><line class="cls-3" x1="178.0349" y1="381.3684" x2="162.8157" y2="407.7289"/><path class="cls-3" d="M227.2242,381.3684a28.4,28.4,0,0,0-24.5947,14.2"/><line class="cls-3" x1="202.6296" y1="395.5682" x2="187.4103" y2="421.9286"/><path class="cls-3" d="M113.6263,296.17a113.5979,113.5979,0,0,0,34.0079,81.055"/><line class="cls-3" x1="153.4402" y1="367.1687" x2="138.221" y2="393.5292"/><line class="cls-3" x1="153.4402" y1="367.1687" x2="138.221" y2="393.5292"/><path class="cls-3" d="M113.6263,407.7289a28.4,28.4,0,0,0,24.5947-14.2"/><line class="cls-3" x1="178.0349" y1="381.3684" x2="162.8157" y2="407.7289"/><path class="cls-3" d="M227.2242,381.3684a28.4,28.4,0,0,0-24.5947,14.2"/><line class="cls-3" x1="202.6296" y1="395.5682" x2="187.4103" y2="421.9286"/><path class="cls-3" d="M113.6263,296.17a113.5979,113.5979,0,0,0,34.0079,81.055"/><line class="cls-3" x1="153.4402" y1="367.1687" x2="138.221" y2="393.5292"/><line class="cls-3" x1="153.4402" y1="367.1687" x2="138.221" y2="393.5292"/><path class="cls-3" d="M113.6263,407.7289a28.4,28.4,0,0,0,24.5947-14.2"/><line class="cls-3" x1="178.0349" y1="381.3684" x2="162.8157" y2="407.7289"/><path class="cls-3" d="M227.2242,381.3684a28.4,28.4,0,0,0-24.5947,14.2"/><line class="cls-3" x1="202.6296" y1="395.5682" x2="187.4103" y2="421.9286"/><path class="cls-3" d="M113.6263,296.17a113.5979,113.5979,0,0,0,34.0079,81.055"/><line class="cls-3" x1="153.4402" y1="367.1687" x2="138.221" y2="393.5292"/><line class="cls-3" x1="153.4402" y1="367.1687" x2="138.221" y2="393.5292"/><path class="cls-3" d="M113.6263,407.7289a28.4,28.4,0,0,0,24.5947-14.2"/><line class="cls-3" x1="178.0349" y1="381.3684" x2="162.8157" y2="407.7289"/><path class="cls-3" d="M227.2242,381.3684a28.4,28.4,0,0,0-24.5947,14.2"/><line class="cls-3" x1="202.6296" y1="395.5682" x2="187.4103" y2="421.9286"/><path class="cls-3" d="M113.6263,296.17a113.5979,113.5979,0,0,0,34.0079,81.055"/><line class="cls-3" x1="153.4402" y1="367.1687" x2="138.221" y2="393.5292"/><line class="cls-3" x1="153.4402" y1="367.1687" x2="138.221" y2="393.5292"/><path class="cls-3" d="M113.6263,407.7289a28.4,28.4,0,0,0,24.5947-14.2"/><line class="cls-3" x1="178.0349" y1="381.3684" x2="162.8157" y2="407.7289"/><path class="cls-3" d="M227.2242,381.3684a28.4,28.4,0,0,0-24.5947,14.2"/><line class="cls-3" x1="202.6296" y1="395.5682" x2="187.4103" y2="421.9286"/><path class="cls-3" d="M113.6263,296.17a113.5979,113.5979,0,0,0,34.0079,81.055"/><line class="cls-3" x1="153.4402" y1="367.1687" x2="138.221" y2="393.5292"/><line class="cls-3" x1="153.4402" y1="367.1687" x2="138.221" y2="393.5292"/><path class="cls-3" d="M113.6263,407.7289a28.4,28.4,0,0,0,24.5947-14.2"/><line class="cls-3" x1="178.0349" y1="381.3684" x2="162.8157" y2="407.7289"/><path class="cls-3" d="M227.2242,381.3684a28.4,28.4,0,0,0-24.5947,14.2"/><line class="cls-3" x1="202.6296" y1="395.5682" x2="187.4103" y2="421.9286"/><path class="cls-3" d="M113.6263,296.17a113.5979,113.5979,0,0,0,34.0079,81.055"/><line class="cls-3" x1="153.4402" y1="367.1687" x2="138.221" y2="393.5292"/><line class="cls-3" x1="153.4402" y1="367.1687" x2="138.221" y2="393.5292"/><path class="cls-3" d="M113.6263,407.7289a28.4,28.4,0,0,0,24.5947-14.2"/><line class="cls-3" x1="178.0349" y1="381.3684" x2="162.8157" y2="407.7289"/><path class="cls-3" d="M227.2242,381.3684a28.4,28.4,0,0,0-24.5947,14.2"/><line class="cls-3" x1="202.6296" y1="395.5682" x2="187.4103" y2="421.9286"/><path class="cls-3" d="M113.6263,296.17a113.5979,113.5979,0,0,0,34.0079,81.055"/><line class="cls-3" x1="153.4402" y1="367.1687" x2="138.221" y2="393.5292"/><line class="cls-3" x1="153.4402" y1="367.1687" x2="138.221" y2="393.5292"/><path class="cls-3" d="M113.6263,407.7289a28.4,28.4,0,0,0,24.5947-14.2"/><line class="cls-3" x1="178.0349" y1="381.3684" x2="162.8157" y2="407.7289"/><path class="cls-3" d="M227.2242,381.3684a28.4,28.4,0,0,0-24.5947,14.2"/><line class="cls-3" x1="202.6296" y1="395.5682" x2="187.4103" y2="421.9286"/><path class="cls-3" d="M113.6263,296.17a113.5979,113.5979,0,0,0,34.0079,81.055"/><line class="cls-3" x1="153.4402" y1="367.1687" x2="138.221" y2="393.5292"/><line class="cls-3" x1="153.4402" y1="367.1687" x2="138.221" y2="393.5292"/><path class="cls-3" d="M113.6263,407.7289a28.4,28.4,0,0,0,24.5947-14.2"/><line class="cls-3" x1="178.0349" y1="381.3684" x2="162.8157" y2="407.7289"/><path class="cls-3" d="M227.2242,381.3684a28.4,28.4,0,0,0-24.5947,14.2"/><line class="cls-3" x1="202.6296" y1="395.5682" x2="187.4103" y2="421.9286"/><path class="cls-3" d="M113.6263,296.17a113.5979,113.5979,0,0,0,34.0079,81.055"/><line class="cls-3" x1="153.4402" y1="367.1687" x2="138.221" y2="393.5292"/><line class="cls-3" x1="153.4402" y1="367.1687" x2="138.221" y2="393.5292"/><path class="cls-3" d="M113.6263,407.7289a28.4,28.4,0,0,0,24.5947-14.2"/><line class="cls-3" x1="178.0349" y1="381.3684" x2="162.8157" y2="407.7289"/><path class="cls-3" d="M227.2242,381.3684a28.4,28.4,0,0,0-24.5947,14.2"/><line class="cls-3" x1="202.6296" y1="395.5682" x2="187.4103" y2="421.9286"/><path class="cls-3" d="M113.6263,296.17a113.5979,113.5979,0,0,0,34.0079,81.055"/><line class="cls-3" x1="153.4402" y1="367.1687" x2="138.221" y2="393.5292"/><line class="cls-3" x1="153.4402" y1="367.1687" x2="138.221" y2="393.5292"/><path class="cls-3" d="M113.6263,407.7289a28.4,28.4,0,0,0,24.5947-14.2"/><line class="cls-3" x1="178.0349" y1="381.3684" x2="162.8157" y2="407.7289"/><path class="cls-3" d="M227.2242,381.3684a28.4,28.4,0,0,0-24.5947,14.2"/><line class="cls-3" x1="202.6296" y1="395.5682" x2="187.4103" y2="421.9286"/><path class="cls-3" d="M113.6263,296.17a113.5979,113.5979,0,0,0,34.0079,81.055"/><line class="cls-3" x1="153.4402" y1="367.1687" x2="138.221" y2="393.5292"/><line class="cls-3" x1="153.4402" y1="367.1687" x2="138.221" y2="393.5292"/><path class="cls-3" d="M113.6263,407.7289a28.4,28.4,0,0,0,24.5947-14.2"/><line class="cls-3" x1="178.0349" y1="381.3684" x2="162.8157" y2="407.7289"/><path class="cls-3" d="M227.2242,381.3684a28.4,28.4,0,0,0-24.5947,14.2"/><line class="cls-3" x1="202.6296" y1="395.5682" x2="187.4103" y2="421.9286"/><path class="cls-3" d="M113.6263,296.17a113.5979,113.5979,0,0,0,34.0079,81.055"/><line class="cls-3" x1="153.4402" y1="367.1687" x2="138.221" y2="393.5292"/><line class="cls-3" x1="153.4402" y1="367.1687" x2="138.221" y2="393.5292"/><path class="cls-3" d="M113.6263,407.7289a28.4,28.4,0,0,0,24.5947-14.2"/><line class="cls-3" x1="178.0349" y1="381.3684" x2="162.8157" y2="407.7289"/><path class="cls-3" d="M227.2242,381.3684a28.4,28.4,0,0,0-24.5947,14.2"/><line class="cls-3" x1="202.6296" y1="395.5682" x2="187.4103" y2="421.9286"/><path class="cls-3" d="M113.6263,296.17a113.5979,113.5979,0,0,0,34.0079,81.055"/><line class="cls-3" x1="153.4402" y1="367.1687" x2="138.221" y2="393.5292"/><line class="cls-3" x1="153.4402" y1="367.1687" x2="138.221" y2="393.5292"/><path class="cls-3" d="M113.6263,407.7289a28.4,28.4,0,0,0,24.5947-14.2"/><line class="cls-3" x1="178.0349" y1="381.3684" x2="162.8157" y2="407.7289"/><path class="cls-3" d="M227.2242,381.3684a28.4,28.4,0,0,0-24.5947,14.2"/><line class="cls-3" x1="202.6296" y1="395.5682" x2="187.4103" y2="421.9286"/><path class="cls-3" d="M113.6263,296.17a113.5979,113.5979,0,0,0,34.0079,81.055"/><line class="cls-3" x1="153.4402" y1="367.1687" x2="138.221" y2="393.5292"/><line class="cls-3" x1="153.4402" y1="367.1687" x2="138.221" y2="393.5292"/><path class="cls-3" d="M113.6263,407.7289a28.4,28.4,0,0,0,24.5947-14.2"/><line class="cls-3" x1="178.0349" y1="381.3684" x2="162.8157" y2="407.7289"/><path class="cls-3" d="M227.2242,381.3684a28.4,28.4,0,0,0-24.5947,14.2"/><line class="cls-3" x1="202.6296" y1="395.5682" x2="187.4103" y2="421.9286"/><path class="cls-3" d="M113.6263,296.17a113.5979,113.5979,0,0,0,34.0079,81.055"/><line class="cls-3" x1="153.4402" y1="367.1687" x2="138.221" y2="393.5292"/><line class="cls-3" x1="153.4402" y1="367.1687" x2="138.221" y2="393.5292"/><path class="cls-3" d="M113.6263,407.7289a28.4,28.4,0,0,0,24.5947-14.2"/><line class="cls-3" x1="178.0349" y1="381.3684" x2="162.8157" y2="407.7289"/><path class="cls-3" d="M227.2242,381.3684a28.4,28.4,0,0,0-24.5947,14.2"/><line class="cls-3" x1="202.6296" y1="395.5682" x2="187.4103" y2="421.9286"/><path class="cls-3" d="M113.6263,296.17a113.5979,113.5979,0,0,0,34.0079,81.055"/><line class="cls-3" x1="153.4402" y1="367.1687" x2="138.221" y2="393.5292"/><line class="cls-3" x1="153.4402" y1="367.1687" x2="138.221" y2="393.5292"/><path class="cls-3" d="M113.6263,407.7289a28.4,28.4,0,0,0,24.5947-14.2"/><line class="cls-3" x1="178.0349" y1="381.3684" x2="162.8157" y2="407.7289"/><path class="cls-3" d="M227.2242,381.3684a28.4,28.4,0,0,0-24.5947,14.2"/><line class="cls-3" x1="202.6296" y1="395.5682" x2="187.4103" y2="421.9286"/><path class="cls-3" d="M113.6263,296.17a113.5979,113.5979,0,0,0,34.0079,81.055"/><line class="cls-3" x1="153.4402" y1="367.1687" x2="138.221" y2="393.5292"/><line class="cls-3" x1="153.4402" y1="367.1687" x2="138.221" y2="393.5292"/><path class="cls-3" d="M113.6263,407.7289a28.4,28.4,0,0,0,24.5947-14.2"/><line class="cls-3" x1="178.0349" y1="381.3684" x2="162.8157" y2="407.7289"/><path class="cls-3" d="M227.2242,381.3684a28.4,28.4,0,0,0-24.5947,14.2"/><line class="cls-3" x1="202.6296" y1="395.5682" x2="187.4103" y2="421.9286"/><path class="cls-3" d="M113.6263,296.17a113.5979,113.5979,0,0,0,34.0079,81.055"/><line class="cls-3" x1="153.4402" y1="367.1687" x2="138.221" y2="393.5292"/><line class="cls-3" x1="153.4402" y1="367.1687" x2="138.221" y2="393.5292"/><path class="cls-3" d="M113.6263,407.7289a28.4,28.4,0,0,0,24.5947-14.2"/><line class="cls-3" x1="178.0349" y1="381.3684" x2="162.8157" y2="407.7289"/><path class="cls-3" d="M227.2242,381.3684a28.4,28.4,0,0,0-24.5947,14.2"/><line class="cls-3" x1="202.6296" y1="395.5682" x2="187.4103" y2="421.9286"/><path class="cls-3" d="M113.6263,296.17a113.5979,113.5979,0,0,0,34.0079,81.055"/><line class="cls-3" x1="153.4402" y1="367.1687" x2="138.221" y2="393.5292"/><line class="cls-3" x1="153.4402" y1="367.1687" x2="138.221" y2="393.5292"/><path class="cls-3" d="M113.6263,407.7289a28.4,28.4,0,0,0,24.5947-14.2"/><line class="cls-3" x1="178.0349" y1="381.3684" x2="162.8157" y2="407.7289"/><path class="cls-3" d="M227.2242,381.3684a28.4,28.4,0,0,0-24.5947,14.2"/><line class="cls-3" x1="202.6296" y1="395.5682" x2="187.4103" y2="421.9286"/><path class="cls-3" d="M113.6263,296.17a113.5979,113.5979,0,0,0,34.0079,81.055"/><line class="cls-3" x1="153.4402" y1="367.1687" x2="138.221" y2="393.5292"/><line class="cls-3" x1="153.4402" y1="367.1687" x2="138.221" y2="393.5292"/><path class="cls-3" d="M113.6263,407.7289a28.4,28.4,0,0,0,24.5947-14.2"/><line class="cls-3" x1="178.0349" y1="381.3684" x2="162.8157" y2="407.7289"/><path class="cls-3" d="M227.2242,381.3684a28.4,28.4,0,0,0-24.5947,14.2"/><line class="cls-3" x1="202.6296" y1="395.5682" x2="187.4103" y2="421.9286"/><path class="cls-3" d="M163.7211,239.3711A85.1984,85.1984,0,0,0,142.0258,296.17"/><path class="cls-3" d="M142.0258,296.17a85.1984,85.1984,0,0,0,21.6953,56.7989"/><path class="cls-3" d="M227.2242-12.1462a28.4,28.4,0,0,0-24.5947,14.2"/><line class="cls-3" x1="202.6296" y1="2.0535" x2="187.4103" y2="28.414"/><line class="cls-3" x1="202.6296" y1="196.7719" x2="187.4103" y2="170.4114"/><path class="cls-3" d="M202.63,196.7719a28.4,28.4,0,0,0,24.5947,14.2"/><line class="cls-3" x1="178.0349" y1="210.9716" x2="162.8157" y2="184.6111"/><path class="cls-3" d="M162.8157,184.6111a56.7989,56.7989,0,0,0-90.4358-10.65"/><path class="cls-3" d="M113.6263,14.2143a85.1984,85.1984,0,0,0,0,170.3968"/><path class="cls-3" d="M138.221,198.8108a28.4,28.4,0,0,0-24.5947-14.2"/><line class="cls-3" x1="153.4402" y1="225.1713" x2="138.221" y2="198.8108"/><line class="cls-3" x1="153.4402" y1="225.1713" x2="138.221" y2="198.8108"/><path class="cls-3" d="M147.6342,215.115a113.5979,113.5979,0,0,0-34.0079,81.055"/><path class="cls-3" d="M227.2242-12.1462a28.4,28.4,0,0,0-24.5947,14.2"/><line class="cls-3" x1="202.6296" y1="2.0535" x2="187.4103" y2="28.414"/><line class="cls-3" x1="202.6296" y1="196.7719" x2="187.4103" y2="170.4114"/><path class="cls-3" d="M202.63,196.7719a28.4,28.4,0,0,0,24.5947,14.2"/><line class="cls-3" x1="178.0349" y1="210.9716" x2="162.8157" y2="184.6111"/><path class="cls-3" d="M162.8157,184.6111a56.7989,56.7989,0,0,0-90.4358-10.65"/><path class="cls-3" d="M113.6263,14.2143a85.1984,85.1984,0,0,0,0,170.3968"/><path class="cls-3" d="M138.221,198.8108a28.4,28.4,0,0,0-24.5947-14.2"/><line class="cls-3" x1="153.4402" y1="225.1713" x2="138.221" y2="198.8108"/><line class="cls-3" x1="153.4402" y1="225.1713" x2="138.221" y2="198.8108"/><path class="cls-3" d="M147.6342,215.115a113.5979,113.5979,0,0,0-34.0079,81.055"/><path class="cls-3" d="M227.2242-12.1462a28.4,28.4,0,0,0-24.5947,14.2"/><line class="cls-3" x1="202.6296" y1="2.0535" x2="187.4103" y2="28.414"/><line class="cls-3" x1="202.6296" y1="196.7719" x2="187.4103" y2="170.4114"/><path class="cls-3" d="M202.63,196.7719a28.4,28.4,0,0,0,24.5947,14.2"/><line class="cls-3" x1="178.0349" y1="210.9716" x2="162.8157" y2="184.6111"/><path class="cls-3" d="M162.8157,184.6111a56.7989,56.7989,0,0,0-90.4358-10.65"/><path class="cls-3" d="M113.6263,14.2143a85.1984,85.1984,0,0,0,0,170.3968"/><path class="cls-3" d="M138.221,198.8108a28.4,28.4,0,0,0-24.5947-14.2"/><line class="cls-3" x1="153.4402" y1="225.1713" x2="138.221" y2="198.8108"/><line class="cls-3" x1="153.4402" y1="225.1713" x2="138.221" y2="198.8108"/><path class="cls-3" d="M147.6342,215.115a113.5979,113.5979,0,0,0-34.0079,81.055"/><path class="cls-3" d="M113.6263,14.2143a85.1984,85.1984,0,0,0,0,170.3968"/><path class="cls-3" d="M187.41,170.4114a85.1984,85.1984,0,0,0-137.2871-14.2"/><path class="cls-3" d="M177.1295,156.2116a85.1984,85.1984,0,0,0,0-113.5979"/><path class="cls-3" d="M50.1232,42.6137a85.1984,85.1984,0,0,0,120.3021,6.7042A85.1984,85.1984,0,0,0,187.41,28.414"/><line class="cls-3" x1="83.2257" y1="-10.0418" x2="79.6184" y2="-16.2897"/><line class="cls-3" x1="34.0363" y1="18.3577" x2="30.4291" y2="12.1098"/><path class="cls-3" d="M144.027-10.0418a113.5979,113.5979,0,1,0,0,218.9089"/><line class="cls-3" x1="83.2257" y1="-10.0418" x2="79.6184" y2="-16.2897"/><path class="cls-3" d="M144.027-10.0418a113.5979,113.5979,0,1,0,0,218.9089"/><line class="cls-3" x1="153.4402" y1="-26.3459" x2="138.221" y2="0.0145"/><path class="cls-3" d="M144.027-10.0418a113.5979,113.5979,0,1,0,0,218.9089"/><line class="cls-3" x1="83.2257" y1="208.8672" x2="79.6184" y2="215.115"/><path class="cls-3" d="M147.6342,215.115a113.5979,113.5979,0,0,0-34.0079,81.055"/><line class="cls-3" x1="153.4402" y1="225.1713" x2="138.221" y2="198.8108"/><path class="cls-3" d="M227.2242-12.1462a28.4,28.4,0,0,0-24.5947,14.2"/><line class="cls-3" x1="202.6296" y1="2.0535" x2="187.4103" y2="28.414"/><line class="cls-3" x1="202.6296" y1="196.7719" x2="187.4103" y2="170.4114"/><path class="cls-3" d="M202.63,196.7719a28.4,28.4,0,0,0,24.5947,14.2"/><line class="cls-3" x1="178.0349" y1="210.9716" x2="162.8157" y2="184.6111"/><path class="cls-3" d="M162.8157,184.6111a56.7989,56.7989,0,0,0-90.4358-10.65"/><path class="cls-3" d="M113.6263,14.2143a85.1984,85.1984,0,0,0,0,170.3968"/><path class="cls-3" d="M138.221,198.8108a28.4,28.4,0,0,0-24.5947-14.2"/><line class="cls-3" x1="153.4402" y1="225.1713" x2="138.221" y2="198.8108"/><line class="cls-3" x1="153.4402" y1="225.1713" x2="138.221" y2="198.8108"/><path class="cls-3" d="M147.6342,215.115a113.5979,113.5979,0,0,0-34.0079,81.055"/><path class="cls-3" d="M227.2242-12.1462a28.4,28.4,0,0,0-24.5947,14.2"/><line class="cls-3" x1="202.6296" y1="2.0535" x2="187.4103" y2="28.414"/><line class="cls-3" x1="202.6296" y1="196.7719" x2="187.4103" y2="170.4114"/><path class="cls-3" d="M202.63,196.7719a28.4,28.4,0,0,0,24.5947,14.2"/><line class="cls-3" x1="178.0349" y1="210.9716" x2="162.8157" y2="184.6111"/><path class="cls-3" d="M162.8157,184.6111a56.7989,56.7989,0,0,0-90.4358-10.65"/><path class="cls-3" d="M113.6263,14.2143a85.1984,85.1984,0,0,0,0,170.3968"/><path class="cls-3" d="M138.221,198.8108a28.4,28.4,0,0,0-24.5947-14.2"/><line class="cls-3" x1="153.4402" y1="225.1713" x2="138.221" y2="198.8108"/><line class="cls-3" x1="153.4402" y1="225.1713" x2="138.221" y2="198.8108"/><path class="cls-3" d="M147.6342,215.115a113.5979,113.5979,0,0,0-34.0079,81.055"/><path class="cls-3" d="M227.2242-12.1462a28.4,28.4,0,0,0-24.5947,14.2"/><line class="cls-3" x1="202.6296" y1="2.0535" x2="187.4103" y2="28.414"/><line class="cls-3" x1="202.6296" y1="196.7719" x2="187.4103" y2="170.4114"/><path class="cls-3" d="M202.63,196.7719a28.4,28.4,0,0,0,24.5947,14.2"/><line class="cls-3" x1="178.0349" y1="210.9716" x2="162.8157" y2="184.6111"/><path class="cls-3" d="M162.8157,184.6111a56.7989,56.7989,0,0,0-90.4358-10.65"/><path class="cls-3" d="M113.6263,14.2143a85.1984,85.1984,0,0,0,0,170.3968"/><path class="cls-3" d="M138.221,198.8108a28.4,28.4,0,0,0-24.5947-14.2"/><line class="cls-3" x1="153.4402" y1="225.1713" x2="138.221" y2="198.8108"/><line class="cls-3" x1="153.4402" y1="225.1713" x2="138.221" y2="198.8108"/><path class="cls-3" d="M147.6342,215.115a113.5979,113.5979,0,0,0-34.0079,81.055"/><path class="cls-3" d="M227.2242-12.1462a28.4,28.4,0,0,0-24.5947,14.2"/><line class="cls-3" x1="202.6296" y1="2.0535" x2="187.4103" y2="28.414"/><line class="cls-3" x1="202.6296" y1="196.7719" x2="187.4103" y2="170.4114"/><path class="cls-3" d="M202.63,196.7719a28.4,28.4,0,0,0,24.5947,14.2"/><line class="cls-3" x1="178.0349" y1="210.9716" x2="162.8157" y2="184.6111"/><path class="cls-3" d="M162.8157,184.6111a56.7989,56.7989,0,0,0-90.4358-10.65"/><path class="cls-3" d="M113.6263,14.2143a85.1984,85.1984,0,0,0,0,170.3968"/><path class="cls-3" d="M138.221,198.8108a28.4,28.4,0,0,0-24.5947-14.2"/><line class="cls-3" x1="153.4402" y1="225.1713" x2="138.221" y2="198.8108"/><line class="cls-3" x1="153.4402" y1="225.1713" x2="138.221" y2="198.8108"/><path class="cls-3" d="M147.6342,215.115a113.5979,113.5979,0,0,0-34.0079,81.055"/><path class="cls-3" d="M144.027-10.0418a113.5979,113.5979,0,1,0,0,218.9089"/><path class="cls-3" d="M144.027-10.0418a113.5979,113.5979,0,1,0,0,218.9089"/><line class="cls-3" x1="153.4402" y1="225.1713" x2="138.221" y2="198.8108"/><path class="cls-3" d="M138.221,198.8108a28.4,28.4,0,0,0-24.5947-14.2"/><path class="cls-3" d="M113.6263,14.2143a85.1984,85.1984,0,0,0,0,170.3968"/><path class="cls-3" d="M113.6263,14.2143a85.1984,85.1984,0,0,0,0,170.3968"/><path class="cls-3" d="M113.6263,14.2143a85.1984,85.1984,0,0,0,0,170.3968"/><path class="cls-3" d="M113.6263,14.2143a85.1984,85.1984,0,0,0,0,170.3968"/><path class="cls-3" d="M113.6263,14.2143a85.1984,85.1984,0,0,0,0,170.3968"/><path class="cls-3" d="M113.6263,14.2143A28.4,28.4,0,0,0,138.221.0145"/><line class="cls-3" x1="153.4402" y1="-26.3459" x2="138.221" y2="0.0145"/><path class="cls-3" d="M144.027-10.0418a113.5979,113.5979,0,1,0,0,218.9089"/><path class="cls-3" d="M144.027-10.0418a113.5979,113.5979,0,1,0,0,218.9089"/><path class="cls-3" d="M144.027-10.0418a113.5979,113.5979,0,1,0,0,218.9089"/><line class="cls-3" x1="83.2257" y1="208.8672" x2="79.6184" y2="215.115"/><path class="cls-3" d="M144.027-10.0418a113.5979,113.5979,0,1,0,0,218.9089"/><line class="cls-3" x1="153.4402" y1="225.1713" x2="138.221" y2="198.8108"/><path class="cls-3" d="M138.221,198.8108a28.4,28.4,0,0,0-24.5947-14.2"/><path class="cls-3" d="M113.6263,14.2143a85.1984,85.1984,0,0,0,0,170.3968"/><path class="cls-3" d="M113.6263,14.2143a85.1984,85.1984,0,0,0,0,170.3968"/><path class="cls-3" d="M113.6263,14.2143a85.1984,85.1984,0,0,0,0,170.3968"/><path class="cls-3" d="M113.6263,14.2143a85.1984,85.1984,0,0,0,0,170.3968"/><path class="cls-3" d="M113.6263,14.2143a85.1984,85.1984,0,0,0,0,170.3968"/><path class="cls-3" d="M113.6263,14.2143A28.4,28.4,0,0,0,138.221.0145"/><line class="cls-3" x1="153.4402" y1="-26.3459" x2="138.221" y2="0.0145"/><path class="cls-3" d="M144.027-10.0418a113.5979,113.5979,0,1,0,0,218.9089"/><path class="cls-3" d="M144.027-10.0418a113.5979,113.5979,0,1,0,0,218.9089"/><path class="cls-3" d="M144.027-10.0418a113.5979,113.5979,0,1,0,0,218.9089"/><line class="cls-3" x1="34.0363" y1="180.4677" x2="30.4291" y2="186.7155"/><path class="cls-3" d="M227.2242-12.1462a28.4,28.4,0,0,0-24.5947,14.2"/><line class="cls-3" x1="202.6296" y1="2.0535" x2="187.4103" y2="28.414"/><line class="cls-3" x1="202.6296" y1="196.7719" x2="187.4103" y2="170.4114"/><path class="cls-3" d="M202.63,196.7719a28.4,28.4,0,0,0,24.5947,14.2"/><line class="cls-3" x1="178.0349" y1="210.9716" x2="162.8157" y2="184.6111"/><path class="cls-3" d="M162.8157,184.6111a56.7989,56.7989,0,0,0-90.4358-10.65"/><path class="cls-3" d="M113.6263,14.2143a85.1984,85.1984,0,0,0,0,170.3968"/><path class="cls-3" d="M138.221,198.8108a28.4,28.4,0,0,0-24.5947-14.2"/><line class="cls-3" x1="153.4402" y1="225.1713" x2="138.221" y2="198.8108"/><line class="cls-3" x1="153.4402" y1="225.1713" x2="138.221" y2="198.8108"/><path class="cls-3" d="M147.6342,215.115a113.5979,113.5979,0,0,0-34.0079,81.055"/><line class="cls-3" x1="34.0363" y1="180.4677" x2="30.4291" y2="186.7155"/><path class="cls-3" d="M144.027-10.0418a113.5979,113.5979,0,1,0,0,218.9089"/><line class="cls-3" x1="34.0363" y1="18.3577" x2="30.4291" y2="12.1098"/><path class="cls-3" d="M227.2242-12.1462a28.4,28.4,0,0,0-24.5947,14.2"/><line class="cls-3" x1="202.6296" y1="2.0535" x2="187.4103" y2="28.414"/><line class="cls-3" x1="202.6296" y1="196.7719" x2="187.4103" y2="170.4114"/><path class="cls-3" d="M202.63,196.7719a28.4,28.4,0,0,0,24.5947,14.2"/><line class="cls-3" x1="178.0349" y1="210.9716" x2="162.8157" y2="184.6111"/><path class="cls-3" d="M162.8157,184.6111a56.7989,56.7989,0,0,0-90.4358-10.65"/><path class="cls-3" d="M113.6263,14.2143a85.1984,85.1984,0,0,0,0,170.3968"/><path class="cls-3" d="M138.221,198.8108a28.4,28.4,0,0,0-24.5947-14.2"/><line class="cls-3" x1="153.4402" y1="225.1713" x2="138.221" y2="198.8108"/><line class="cls-3" x1="153.4402" y1="225.1713" x2="138.221" y2="198.8108"/><path class="cls-3" d="M147.6342,215.115a113.5979,113.5979,0,0,0-34.0079,81.055"/><line class="cls-3" x1="34.0363" y1="180.4677" x2="30.4291" y2="186.7155"/><path class="cls-3" d="M144.027-10.0418a113.5979,113.5979,0,1,0,0,218.9089"/><line class="cls-3" x1="34.0363" y1="18.3577" x2="30.4291" y2="12.1098"/><path class="cls-3" d="M227.2242-12.1462a28.4,28.4,0,0,0-24.5947,14.2"/><line class="cls-3" x1="202.6296" y1="2.0535" x2="187.4103" y2="28.414"/><line class="cls-3" x1="202.6296" y1="196.7719" x2="187.4103" y2="170.4114"/><path class="cls-3" d="M202.63,196.7719a28.4,28.4,0,0,0,24.5947,14.2"/><line class="cls-3" x1="178.0349" y1="210.9716" x2="162.8157" y2="184.6111"/><path class="cls-3" d="M162.8157,184.6111a56.7989,56.7989,0,0,0-90.4358-10.65"/><path class="cls-3" d="M113.6263,14.2143a85.1984,85.1984,0,0,0,0,170.3968"/><path class="cls-3" d="M138.221,198.8108a28.4,28.4,0,0,0-24.5947-14.2"/><line class="cls-3" x1="153.4402" y1="225.1713" x2="138.221" y2="198.8108"/><line class="cls-3" x1="153.4402" y1="225.1713" x2="138.221" y2="198.8108"/><path class="cls-3" d="M147.6342,215.115a113.5979,113.5979,0,0,0-34.0079,81.055"/><line class="cls-3" x1="34.0363" y1="180.4677" x2="30.4291" y2="186.7155"/><path class="cls-3" d="M144.027-10.0418a113.5979,113.5979,0,1,0,0,218.9089"/><line class="cls-3" x1="34.0363" y1="18.3577" x2="30.4291" y2="12.1098"/><line class="cls-3" x1="34.0363" y1="180.4677" x2="30.4291" y2="186.7155"/><path class="cls-3" d="M144.027-10.0418a113.5979,113.5979,0,1,0,0,218.9089"/><line class="cls-3" x1="34.0363" y1="18.3577" x2="30.4291" y2="12.1098"/><line class="cls-3" x1="202.6296" y1="2.0535" x2="187.4103" y2="28.414"/><line class="cls-3" x1="202.6296" y1="2.0535" x2="187.4103" y2="28.414"/><line class="cls-3" x1="202.6296" y1="2.0535" x2="187.4103" y2="28.414"/><path class="cls-3" d="M227.2242-12.1462a28.4,28.4,0,0,0-24.5947,14.2"/><line class="cls-3" x1="178.0349" y1="-12.1462" x2="162.8157" y2="14.2143"/><path class="cls-3" d="M72.38,24.8641a56.7989,56.7989,0,0,0,80.2958,2.1972,56.7989,56.7989,0,0,0,10.14-12.847"/><path class="cls-3" d="M113.6263,14.2143a85.1984,85.1984,0,0,0,0,170.3968"/><path class="cls-3" d="M50.1232,42.6137a85.1984,85.1984,0,0,0,120.3021,6.7042A85.1984,85.1984,0,0,0,187.41,28.414"/><path class="cls-3" d="M50.1232,42.6137a85.1984,85.1984,0,0,0,120.3021,6.7042A85.1984,85.1984,0,0,0,187.41,28.414"/><path class="cls-3" d="M50.1232,42.6137a85.1984,85.1984,0,0,0,120.3021,6.7042A85.1984,85.1984,0,0,0,187.41,28.414"/><path class="cls-3" d="M177.1295,156.2116a85.1984,85.1984,0,0,0,0-113.5979"/><path class="cls-3" d="M187.41,170.4114a85.1984,85.1984,0,0,0-137.2871-14.2"/><line class="cls-3" x1="202.6296" y1="196.7719" x2="187.4103" y2="170.4114"/><line class="cls-3" x1="202.6296" y1="2.0535" x2="187.4103" y2="28.414"/><line class="cls-3" x1="153.4402" y1="-26.3459" x2="138.221" y2="0.0145"/><line class="cls-3" x1="153.4402" y1="-26.3459" x2="138.221" y2="0.0145"/><path class="cls-3" d="M113.6263,14.2143A28.4,28.4,0,0,0,138.221.0145"/><path class="cls-3" d="M113.6263,14.2143a85.1984,85.1984,0,0,0,0,170.3968"/><path class="cls-3" d="M72.38,24.8641a56.7989,56.7989,0,0,0,80.2958,2.1972,56.7989,56.7989,0,0,0,10.14-12.847"/><line class="cls-3" x1="178.0349" y1="-12.1462" x2="162.8157" y2="14.2143"/><path class="cls-3" d="M202.63,196.7719a28.4,28.4,0,0,0,24.5947,14.2"/><line class="cls-3" x1="202.6296" y1="196.7719" x2="187.4103" y2="170.4114"/><line class="cls-3" x1="202.6296" y1="196.7719" x2="187.4103" y2="170.4114"/><line class="cls-3" x1="202.6296" y1="196.7719" x2="187.4103" y2="170.4114"/><path class="cls-3" d="M187.41,170.4114a85.1984,85.1984,0,0,0-137.2871-14.2"/><path class="cls-3" d="M187.41,170.4114a85.1984,85.1984,0,0,0-137.2871-14.2"/><path class="cls-3" d="M113.6263,14.2143a85.1984,85.1984,0,0,0,0,170.3968"/><path class="cls-3" d="M162.8157,184.6111a56.7989,56.7989,0,0,0-90.4358-10.65"/><line class="cls-3" x1="178.0349" y1="210.9716" x2="162.8157" y2="184.6111"/><path class="cls-3" d="M227.2242-12.1462a28.4,28.4,0,0,0-24.5947,14.2"/><line class="cls-3" x1="202.6296" y1="2.0535" x2="187.4103" y2="28.414"/><line class="cls-3" x1="202.6296" y1="196.7719" x2="187.4103" y2="170.4114"/><path class="cls-3" d="M202.63,196.7719a28.4,28.4,0,0,0,24.5947,14.2"/><line class="cls-3" x1="178.0349" y1="210.9716" x2="162.8157" y2="184.6111"/><path class="cls-3" d="M162.8157,184.6111a56.7989,56.7989,0,0,0-90.4358-10.65"/><path class="cls-3" d="M113.6263,14.2143a85.1984,85.1984,0,0,0,0,170.3968"/><path class="cls-3" d="M138.221,198.8108a28.4,28.4,0,0,0-24.5947-14.2"/><line class="cls-3" x1="153.4402" y1="225.1713" x2="138.221" y2="198.8108"/><path class="cls-3" d="M144.027-10.0418a113.5979,113.5979,0,1,0,0,218.9089"/><line class="cls-3" x1="83.2257" y1="208.8672" x2="79.6184" y2="215.115"/><path class="cls-3" d="M227.2242-12.1462a28.4,28.4,0,0,0-24.5947,14.2"/><line class="cls-3" x1="202.6296" y1="2.0535" x2="187.4103" y2="28.414"/><line class="cls-3" x1="202.6296" y1="196.7719" x2="187.4103" y2="170.4114"/><path class="cls-3" d="M202.63,196.7719a28.4,28.4,0,0,0,24.5947,14.2"/><line class="cls-3" x1="178.0349" y1="210.9716" x2="162.8157" y2="184.6111"/><path class="cls-3" d="M162.8157,184.6111a56.7989,56.7989,0,0,0-90.4358-10.65"/><path class="cls-3" d="M113.6263,14.2143a85.1984,85.1984,0,0,0,0,170.3968"/><path class="cls-3" d="M113.6263,14.2143a85.1984,85.1984,0,0,0,0,170.3968"/><path class="cls-3" d="M113.6263,14.2143a85.1984,85.1984,0,0,0,0,170.3968"/><path class="cls-3" d="M113.6263,14.2143a85.1984,85.1984,0,0,0,0,170.3968"/><path class="cls-3" d="M113.6263,14.2143A28.4,28.4,0,0,0,138.221.0145"/><line class="cls-3" x1="153.4402" y1="-26.3459" x2="138.221" y2="0.0145"/><path class="cls-3" d="M144.027-10.0418a113.5979,113.5979,0,1,0,0,218.9089"/><path class="cls-3" d="M144.027-10.0418a113.5979,113.5979,0,1,0,0,218.9089"/><path class="cls-3" d="M144.027-10.0418a113.5979,113.5979,0,1,0,0,218.9089"/><line class="cls-3" x1="34.0363" y1="180.4677" x2="30.4291" y2="186.7155"/><path class="cls-3" d="M227.2242-12.1462a28.4,28.4,0,0,0-24.5947,14.2"/><line class="cls-3" x1="202.6296" y1="2.0535" x2="187.4103" y2="28.414"/><line class="cls-3" x1="202.6296" y1="196.7719" x2="187.4103" y2="170.4114"/><path class="cls-3" d="M202.63,196.7719a28.4,28.4,0,0,0,24.5947,14.2"/><line class="cls-3" x1="178.0349" y1="210.9716" x2="162.8157" y2="184.6111"/><path class="cls-3" d="M162.8157,184.6111a56.7989,56.7989,0,0,0-90.4358-10.65"/><path class="cls-3" d="M113.6263,14.2143a85.1984,85.1984,0,0,0,0,170.3968"/><path class="cls-3" d="M113.6263,14.2143a85.1984,85.1984,0,0,0,0,170.3968"/><path class="cls-3" d="M113.6263,14.2143a85.1984,85.1984,0,0,0,0,170.3968"/><path class="cls-3" d="M113.6263,14.2143a85.1984,85.1984,0,0,0,0,170.3968"/><path class="cls-3" d="M113.6263,14.2143A28.4,28.4,0,0,0,138.221.0145"/><line class="cls-3" x1="153.4402" y1="-26.3459" x2="138.221" y2="0.0145"/><path class="cls-3" d="M144.027-10.0418a113.5979,113.5979,0,1,0,0,218.9089"/><path class="cls-3" d="M144.027-10.0418a113.5979,113.5979,0,1,0,0,218.9089"/><line class="cls-3" x1="34.0363" y1="18.3577" x2="30.4291" y2="12.1098"/><path class="cls-3" d="M227.2242-12.1462a28.4,28.4,0,0,0-24.5947,14.2"/><line class="cls-3" x1="202.6296" y1="2.0535" x2="187.4103" y2="28.414"/><line class="cls-3" x1="202.6296" y1="196.7719" x2="187.4103" y2="170.4114"/><path class="cls-3" d="M202.63,196.7719a28.4,28.4,0,0,0,24.5947,14.2"/><line class="cls-3" x1="178.0349" y1="210.9716" x2="162.8157" y2="184.6111"/><path class="cls-3" d="M162.8157,184.6111a56.7989,56.7989,0,0,0-90.4358-10.65"/><path class="cls-3" d="M113.6263,14.2143a85.1984,85.1984,0,0,0,0,170.3968"/><path class="cls-3" d="M113.6263,14.2143a85.1984,85.1984,0,0,0,0,170.3968"/><path class="cls-3" d="M113.6263,14.2143a85.1984,85.1984,0,0,0,0,170.3968"/><path class="cls-3" d="M113.6263,14.2143a85.1984,85.1984,0,0,0,0,170.3968"/><path class="cls-3" d="M113.6263,14.2143A28.4,28.4,0,0,0,138.221.0145"/><line class="cls-3" x1="153.4402" y1="-26.3459" x2="138.221" y2="0.0145"/><path class="cls-3" d="M144.027-10.0418a113.5979,113.5979,0,1,0,0,218.9089"/><path class="cls-3" d="M144.027-10.0418a113.5979,113.5979,0,1,0,0,218.9089"/><line class="cls-3" x1="34.0363" y1="18.3577" x2="30.4291" y2="12.1098"/><path class="cls-3" d="M227.2242-12.1462a28.4,28.4,0,0,0-24.5947,14.2"/><line class="cls-3" x1="202.6296" y1="2.0535" x2="187.4103" y2="28.414"/><line class="cls-3" x1="202.6296" y1="196.7719" x2="187.4103" y2="170.4114"/><path class="cls-3" d="M202.63,196.7719a28.4,28.4,0,0,0,24.5947,14.2"/><line class="cls-3" x1="178.0349" y1="210.9716" x2="162.8157" y2="184.6111"/><path class="cls-3" d="M162.8157,184.6111a56.7989,56.7989,0,0,0-90.4358-10.65"/><path class="cls-3" d="M113.6263,14.2143a85.1984,85.1984,0,0,0,0,170.3968"/><path class="cls-3" d="M113.6263,14.2143a85.1984,85.1984,0,0,0,0,170.3968"/><path class="cls-3" d="M113.6263,14.2143a85.1984,85.1984,0,0,0,0,170.3968"/><path class="cls-3" d="M113.6263,14.2143a85.1984,85.1984,0,0,0,0,170.3968"/><path class="cls-3" d="M113.6263,14.2143A28.4,28.4,0,0,0,138.221.0145"/><line class="cls-3" x1="153.4402" y1="-26.3459" x2="138.221" y2="0.0145"/><path class="cls-3" d="M144.027-10.0418a113.5979,113.5979,0,1,0,0,218.9089"/><path class="cls-3" d="M193.2163,180.4677a113.5979,113.5979,0,0,0,1.465-160.645q-.7258-.7392-1.465-1.465"/><path class="cls-3" d="M144.027-10.0418a113.5979,113.5979,0,1,0,0,218.9089"/><line class="cls-3" x1="34.0363" y1="18.3577" x2="30.4291" y2="12.1098"/><line class="cls-3" x1="202.6296" y1="2.0535" x2="187.4103" y2="28.414"/><line class="cls-3" x1="202.6296" y1="2.0535" x2="187.4103" y2="28.414"/><path class="cls-3" d="M50.1232,42.6137a85.1984,85.1984,0,0,0,120.3021,6.7042A85.1984,85.1984,0,0,0,187.41,28.414"/><path class="cls-3" d="M177.1295,156.2116a85.1984,85.1984,0,0,0,0-113.5979"/><path class="cls-3" d="M187.41,170.4114a85.1984,85.1984,0,0,0-137.2871-14.2"/><line class="cls-3" x1="202.6296" y1="196.7719" x2="187.4103" y2="170.4114"/><line class="cls-3" x1="202.6296" y1="196.7719" x2="187.4103" y2="170.4114"/><path class="cls-3" d="M227.2242-12.1462a28.4,28.4,0,0,0-24.5947,14.2"/><line class="cls-3" x1="202.6296" y1="2.0535" x2="187.4103" y2="28.414"/><line class="cls-3" x1="202.6296" y1="196.7719" x2="187.4103" y2="170.4114"/><path class="cls-3" d="M202.63,196.7719a28.4,28.4,0,0,0,24.5947,14.2"/><line class="cls-3" x1="178.0349" y1="210.9716" x2="162.8157" y2="184.6111"/><path class="cls-3" d="M162.8157,184.6111a56.7989,56.7989,0,0,0-90.4358-10.65"/><path class="cls-3" d="M113.6263,14.2143a85.1984,85.1984,0,0,0,0,170.3968"/><path class="cls-3" d="M138.221,198.8108a28.4,28.4,0,0,0-24.5947-14.2"/><line class="cls-3" x1="153.4402" y1="225.1713" x2="138.221" y2="198.8108"/><line class="cls-3" x1="153.4402" y1="225.1713" x2="138.221" y2="198.8108"/><path class="cls-3" d="M147.6342,215.115a113.5979,113.5979,0,0,0-34.0079,81.055"/><path class="cls-3" d="M227.2242-12.1462a28.4,28.4,0,0,0-24.5947,14.2"/><line class="cls-3" x1="202.6296" y1="2.0535" x2="187.4103" y2="28.414"/><line class="cls-3" x1="202.6296" y1="196.7719" x2="187.4103" y2="170.4114"/><path class="cls-3" d="M202.63,196.7719a28.4,28.4,0,0,0,24.5947,14.2"/><line class="cls-3" x1="178.0349" y1="210.9716" x2="162.8157" y2="184.6111"/><path class="cls-3" d="M162.8157,184.6111a56.7989,56.7989,0,0,0-90.4358-10.65"/><path class="cls-3" d="M113.6263,14.2143a85.1984,85.1984,0,0,0,0,170.3968"/><path class="cls-3" d="M138.221,198.8108a28.4,28.4,0,0,0-24.5947-14.2"/><line class="cls-3" x1="153.4402" y1="225.1713" x2="138.221" y2="198.8108"/><line class="cls-3" x1="153.4402" y1="225.1713" x2="138.221" y2="198.8108"/><path class="cls-3" d="M147.6342,215.115a113.5979,113.5979,0,0,0-34.0079,81.055"/><path class="cls-3" d="M227.2242-12.1462a28.4,28.4,0,0,0-24.5947,14.2"/><line class="cls-3" x1="202.6296" y1="2.0535" x2="187.4103" y2="28.414"/><line class="cls-3" x1="202.6296" y1="196.7719" x2="187.4103" y2="170.4114"/><path class="cls-3" d="M202.63,196.7719a28.4,28.4,0,0,0,24.5947,14.2"/><line class="cls-3" x1="178.0349" y1="210.9716" x2="162.8157" y2="184.6111"/><path class="cls-3" d="M162.8157,184.6111a56.7989,56.7989,0,0,0-90.4358-10.65"/><path class="cls-3" d="M113.6263,14.2143a85.1984,85.1984,0,0,0,0,170.3968"/><path class="cls-3" d="M138.221,198.8108a28.4,28.4,0,0,0-24.5947-14.2"/><line class="cls-3" x1="153.4402" y1="225.1713" x2="138.221" y2="198.8108"/><line class="cls-3" x1="153.4402" y1="225.1713" x2="138.221" y2="198.8108"/><path class="cls-3" d="M147.6342,215.115a113.5979,113.5979,0,0,0-34.0079,81.055"/><path class="cls-3" d="M227.2242-12.1462a28.4,28.4,0,0,0-24.5947,14.2"/><line class="cls-3" x1="202.6296" y1="2.0535" x2="187.4103" y2="28.414"/><line class="cls-3" x1="202.6296" y1="196.7719" x2="187.4103" y2="170.4114"/><path class="cls-3" d="M202.63,196.7719a28.4,28.4,0,0,0,24.5947,14.2"/><line class="cls-3" x1="178.0349" y1="210.9716" x2="162.8157" y2="184.6111"/><path class="cls-3" d="M162.8157,184.6111a56.7989,56.7989,0,0,0-90.4358-10.65"/><path class="cls-3" d="M113.6263,14.2143a85.1984,85.1984,0,0,0,0,170.3968"/><path class="cls-3" d="M138.221,198.8108a28.4,28.4,0,0,0-24.5947-14.2"/><line class="cls-3" x1="153.4402" y1="225.1713" x2="138.221" y2="198.8108"/><line class="cls-3" x1="153.4402" y1="225.1713" x2="138.221" y2="198.8108"/><path class="cls-3" d="M147.6342,215.115a113.5979,113.5979,0,0,0-34.0079,81.055"/><path class="cls-3" d="M227.2242-12.1462a28.4,28.4,0,0,0-24.5947,14.2"/><line class="cls-3" x1="202.6296" y1="2.0535" x2="187.4103" y2="28.414"/><line class="cls-3" x1="202.6296" y1="196.7719" x2="187.4103" y2="170.4114"/><path class="cls-3" d="M202.63,196.7719a28.4,28.4,0,0,0,24.5947,14.2"/><line class="cls-3" x1="178.0349" y1="210.9716" x2="162.8157" y2="184.6111"/><path class="cls-3" d="M162.8157,184.6111a56.7989,56.7989,0,0,0-90.4358-10.65"/><path class="cls-3" d="M113.6263,14.2143a85.1984,85.1984,0,0,0,0,170.3968"/><path class="cls-3" d="M138.221,198.8108a28.4,28.4,0,0,0-24.5947-14.2"/><line class="cls-3" x1="153.4402" y1="225.1713" x2="138.221" y2="198.8108"/><line class="cls-3" x1="153.4402" y1="225.1713" x2="138.221" y2="198.8108"/><path class="cls-3" d="M147.6342,215.115a113.5979,113.5979,0,0,0-34.0079,81.055"/><path class="cls-3" d="M227.2242-12.1462a28.4,28.4,0,0,0-24.5947,14.2"/><line class="cls-3" x1="202.6296" y1="2.0535" x2="187.4103" y2="28.414"/><line class="cls-3" x1="202.6296" y1="196.7719" x2="187.4103" y2="170.4114"/><path class="cls-3" d="M202.63,196.7719a28.4,28.4,0,0,0,24.5947,14.2"/><line class="cls-3" x1="178.0349" y1="210.9716" x2="162.8157" y2="184.6111"/><path class="cls-3" d="M162.8157,184.6111a56.7989,56.7989,0,0,0-90.4358-10.65"/><path class="cls-3" d="M113.6263,14.2143a85.1984,85.1984,0,0,0,0,170.3968"/><path class="cls-3" d="M138.221,198.8108a28.4,28.4,0,0,0-24.5947-14.2"/><line class="cls-3" x1="153.4402" y1="225.1713" x2="138.221" y2="198.8108"/><line class="cls-3" x1="153.4402" y1="225.1713" x2="138.221" y2="198.8108"/><path class="cls-3" d="M147.6342,215.115a113.5979,113.5979,0,0,0-34.0079,81.055"/><path class="cls-3" d="M227.2242-12.1462a28.4,28.4,0,0,0-24.5947,14.2"/><line class="cls-3" x1="202.6296" y1="2.0535" x2="187.4103" y2="28.414"/><line class="cls-3" x1="202.6296" y1="196.7719" x2="187.4103" y2="170.4114"/><path class="cls-3" d="M202.63,196.7719a28.4,28.4,0,0,0,24.5947,14.2"/><line class="cls-3" x1="178.0349" y1="210.9716" x2="162.8157" y2="184.6111"/><path class="cls-3" d="M162.8157,184.6111a56.7989,56.7989,0,0,0-90.4358-10.65"/><path class="cls-3" d="M113.6263,14.2143a85.1984,85.1984,0,0,0,0,170.3968"/><path class="cls-3" d="M138.221,198.8108a28.4,28.4,0,0,0-24.5947-14.2"/><line class="cls-3" x1="153.4402" y1="225.1713" x2="138.221" y2="198.8108"/><line class="cls-3" x1="153.4402" y1="225.1713" x2="138.221" y2="198.8108"/><path class="cls-3" d="M147.6342,215.115a113.5979,113.5979,0,0,0-34.0079,81.055"/><path class="cls-3" d="M227.2242-12.1462a28.4,28.4,0,0,0-24.5947,14.2"/><line class="cls-3" x1="202.6296" y1="2.0535" x2="187.4103" y2="28.414"/><line class="cls-3" x1="202.6296" y1="196.7719" x2="187.4103" y2="170.4114"/><path class="cls-3" d="M202.63,196.7719a28.4,28.4,0,0,0,24.5947,14.2"/><line class="cls-3" x1="178.0349" y1="210.9716" x2="162.8157" y2="184.6111"/><path class="cls-3" d="M162.8157,184.6111a56.7989,56.7989,0,0,0-90.4358-10.65"/><path class="cls-3" d="M113.6263,14.2143a85.1984,85.1984,0,0,0,0,170.3968"/><path class="cls-3" d="M138.221,198.8108a28.4,28.4,0,0,0-24.5947-14.2"/><line class="cls-3" x1="153.4402" y1="225.1713" x2="138.221" y2="198.8108"/><line class="cls-3" x1="153.4402" y1="225.1713" x2="138.221" y2="198.8108"/><path class="cls-3" d="M147.6342,215.115a113.5979,113.5979,0,0,0-34.0079,81.055"/><path class="cls-3" d="M227.2242-12.1462a28.4,28.4,0,0,0-24.5947,14.2"/><line class="cls-3" x1="202.6296" y1="2.0535" x2="187.4103" y2="28.414"/><line class="cls-3" x1="202.6296" y1="196.7719" x2="187.4103" y2="170.4114"/><path class="cls-3" d="M202.63,196.7719a28.4,28.4,0,0,0,24.5947,14.2"/><line class="cls-3" x1="178.0349" y1="210.9716" x2="162.8157" y2="184.6111"/><path class="cls-3" d="M162.8157,184.6111a56.7989,56.7989,0,0,0-90.4358-10.65"/><path class="cls-3" d="M113.6263,14.2143a85.1984,85.1984,0,0,0,0,170.3968"/><path class="cls-3" d="M138.221,198.8108a28.4,28.4,0,0,0-24.5947-14.2"/><line class="cls-3" x1="153.4402" y1="225.1713" x2="138.221" y2="198.8108"/><line class="cls-3" x1="153.4402" y1="225.1713" x2="138.221" y2="198.8108"/><path class="cls-3" d="M147.6342,215.115a113.5979,113.5979,0,0,0-34.0079,81.055"/><path class="cls-3" d="M227.2242-12.1462a28.4,28.4,0,0,0-24.5947,14.2"/><line class="cls-3" x1="202.6296" y1="2.0535" x2="187.4103" y2="28.414"/><line class="cls-3" x1="202.6296" y1="196.7719" x2="187.4103" y2="170.4114"/><path class="cls-3" d="M202.63,196.7719a28.4,28.4,0,0,0,24.5947,14.2"/><line class="cls-3" x1="178.0349" y1="210.9716" x2="162.8157" y2="184.6111"/><path class="cls-3" d="M162.8157,184.6111a56.7989,56.7989,0,0,0-90.4358-10.65"/><path class="cls-3" d="M113.6263,14.2143a85.1984,85.1984,0,0,0,0,170.3968"/><path class="cls-3" d="M138.221,198.8108a28.4,28.4,0,0,0-24.5947-14.2"/><line class="cls-3" x1="153.4402" y1="225.1713" x2="138.221" y2="198.8108"/><line class="cls-3" x1="153.4402" y1="225.1713" x2="138.221" y2="198.8108"/><path class="cls-3" d="M147.6342,215.115a113.5979,113.5979,0,0,0-34.0079,81.055"/><path class="cls-3" d="M227.2242-12.1462a28.4,28.4,0,0,0-24.5947,14.2"/><line class="cls-3" x1="202.6296" y1="2.0535" x2="187.4103" y2="28.414"/><line class="cls-3" x1="202.6296" y1="196.7719" x2="187.4103" y2="170.4114"/><path class="cls-3" d="M202.63,196.7719a28.4,28.4,0,0,0,24.5947,14.2"/><line class="cls-3" x1="178.0349" y1="210.9716" x2="162.8157" y2="184.6111"/><path class="cls-3" d="M162.8157,184.6111a56.7989,56.7989,0,0,0-90.4358-10.65"/><path class="cls-3" d="M113.6263,14.2143a85.1984,85.1984,0,0,0,0,170.3968"/><path class="cls-3" d="M138.221,198.8108a28.4,28.4,0,0,0-24.5947-14.2"/><line class="cls-3" x1="153.4402" y1="225.1713" x2="138.221" y2="198.8108"/><line class="cls-3" x1="153.4402" y1="225.1713" x2="138.221" y2="198.8108"/><path class="cls-3" d="M147.6342,215.115a113.5979,113.5979,0,0,0-34.0079,81.055"/><path class="cls-3" d="M227.2242-12.1462a28.4,28.4,0,0,0-24.5947,14.2"/><line class="cls-3" x1="202.6296" y1="2.0535" x2="187.4103" y2="28.414"/><line class="cls-3" x1="202.6296" y1="196.7719" x2="187.4103" y2="170.4114"/><path class="cls-3" d="M202.63,196.7719a28.4,28.4,0,0,0,24.5947,14.2"/><line class="cls-3" x1="178.0349" y1="210.9716" x2="162.8157" y2="184.6111"/><path class="cls-3" d="M162.8157,184.6111a56.7989,56.7989,0,0,0-90.4358-10.65"/><path class="cls-3" d="M113.6263,14.2143a85.1984,85.1984,0,0,0,0,170.3968"/><path class="cls-3" d="M138.221,198.8108a28.4,28.4,0,0,0-24.5947-14.2"/><line class="cls-3" x1="153.4402" y1="225.1713" x2="138.221" y2="198.8108"/><line class="cls-3" x1="153.4402" y1="225.1713" x2="138.221" y2="198.8108"/><path class="cls-3" d="M147.6342,215.115a113.5979,113.5979,0,0,0-34.0079,81.055"/><path class="cls-3" d="M227.2242-12.1462a28.4,28.4,0,0,0-24.5947,14.2"/><line class="cls-3" x1="202.6296" y1="2.0535" x2="187.4103" y2="28.414"/><line class="cls-3" x1="202.6296" y1="196.7719" x2="187.4103" y2="170.4114"/><path class="cls-3" d="M202.63,196.7719a28.4,28.4,0,0,0,24.5947,14.2"/><line class="cls-3" x1="178.0349" y1="210.9716" x2="162.8157" y2="184.6111"/><path class="cls-3" d="M162.8157,184.6111a56.7989,56.7989,0,0,0-90.4358-10.65"/><path class="cls-3" d="M113.6263,14.2143a85.1984,85.1984,0,0,0,0,170.3968"/><path class="cls-3" d="M138.221,198.8108a28.4,28.4,0,0,0-24.5947-14.2"/><line class="cls-3" x1="153.4402" y1="225.1713" x2="138.221" y2="198.8108"/><line class="cls-3" x1="153.4402" y1="225.1713" x2="138.221" y2="198.8108"/><path class="cls-3" d="M147.6342,215.115a113.5979,113.5979,0,0,0-34.0079,81.055"/><path class="cls-3" d="M227.2242-12.1462a28.4,28.4,0,0,0-24.5947,14.2"/><line class="cls-3" x1="202.6296" y1="2.0535" x2="187.4103" y2="28.414"/><line class="cls-3" x1="202.6296" y1="196.7719" x2="187.4103" y2="170.4114"/><path class="cls-3" d="M202.63,196.7719a28.4,28.4,0,0,0,24.5947,14.2"/><line class="cls-3" x1="178.0349" y1="210.9716" x2="162.8157" y2="184.6111"/><path class="cls-3" d="M162.8157,184.6111a56.7989,56.7989,0,0,0-90.4358-10.65"/><path class="cls-3" d="M113.6263,14.2143a85.1984,85.1984,0,0,0,0,170.3968"/><path class="cls-3" d="M138.221,198.8108a28.4,28.4,0,0,0-24.5947-14.2"/><line class="cls-3" x1="153.4402" y1="225.1713" x2="138.221" y2="198.8108"/><line class="cls-3" x1="153.4402" y1="225.1713" x2="138.221" y2="198.8108"/><path class="cls-3" d="M147.6342,215.115a113.5979,113.5979,0,0,0-34.0079,81.055"/><path class="cls-3" d="M227.2242-12.1462a28.4,28.4,0,0,0-24.5947,14.2"/><line class="cls-3" x1="202.6296" y1="2.0535" x2="187.4103" y2="28.414"/><line class="cls-3" x1="202.6296" y1="196.7719" x2="187.4103" y2="170.4114"/><path class="cls-3" d="M202.63,196.7719a28.4,28.4,0,0,0,24.5947,14.2"/><line class="cls-3" x1="178.0349" y1="210.9716" x2="162.8157" y2="184.6111"/><path class="cls-3" d="M162.8157,184.6111a56.7989,56.7989,0,0,0-90.4358-10.65"/><path class="cls-3" d="M113.6263,14.2143a85.1984,85.1984,0,0,0,0,170.3968"/><path class="cls-3" d="M138.221,198.8108a28.4,28.4,0,0,0-24.5947-14.2"/><line class="cls-3" x1="153.4402" y1="225.1713" x2="138.221" y2="198.8108"/><line class="cls-3" x1="153.4402" y1="225.1713" x2="138.221" y2="198.8108"/><path class="cls-3" d="M147.6342,215.115a113.5979,113.5979,0,0,0-34.0079,81.055"/><path class="cls-3" d="M227.2242-12.1462a28.4,28.4,0,0,0-24.5947,14.2"/><line class="cls-3" x1="202.6296" y1="2.0535" x2="187.4103" y2="28.414"/><line class="cls-3" x1="202.6296" y1="196.7719" x2="187.4103" y2="170.4114"/><path class="cls-3" d="M202.63,196.7719a28.4,28.4,0,0,0,24.5947,14.2"/><line class="cls-3" x1="178.0349" y1="210.9716" x2="162.8157" y2="184.6111"/><path class="cls-3" d="M162.8157,184.6111a56.7989,56.7989,0,0,0-90.4358-10.65"/><path class="cls-3" d="M113.6263,14.2143a85.1984,85.1984,0,0,0,0,170.3968"/><path class="cls-3" d="M138.221,198.8108a28.4,28.4,0,0,0-24.5947-14.2"/><line class="cls-3" x1="153.4402" y1="225.1713" x2="138.221" y2="198.8108"/><line class="cls-3" x1="153.4402" y1="225.1713" x2="138.221" y2="198.8108"/><path class="cls-3" d="M147.6342,215.115a113.5979,113.5979,0,0,0-34.0079,81.055"/><path class="cls-3" d="M227.2242-12.1462a28.4,28.4,0,0,0-24.5947,14.2"/><line class="cls-3" x1="202.6296" y1="2.0535" x2="187.4103" y2="28.414"/><line class="cls-3" x1="202.6296" y1="196.7719" x2="187.4103" y2="170.4114"/><path class="cls-3" d="M202.63,196.7719a28.4,28.4,0,0,0,24.5947,14.2"/><line class="cls-3" x1="178.0349" y1="210.9716" x2="162.8157" y2="184.6111"/><path class="cls-3" d="M162.8157,184.6111a56.7989,56.7989,0,0,0-90.4358-10.65"/><path class="cls-3" d="M113.6263,14.2143a85.1984,85.1984,0,0,0,0,170.3968"/><path class="cls-3" d="M138.221,198.8108a28.4,28.4,0,0,0-24.5947-14.2"/><line class="cls-3" x1="153.4402" y1="225.1713" x2="138.221" y2="198.8108"/><line class="cls-3" x1="153.4402" y1="225.1713" x2="138.221" y2="198.8108"/><path class="cls-3" d="M147.6342,215.115a113.5979,113.5979,0,0,0-34.0079,81.055"/><path class="cls-3" d="M227.2242-12.1462a28.4,28.4,0,0,0-24.5947,14.2"/><line class="cls-3" x1="202.6296" y1="2.0535" x2="187.4103" y2="28.414"/><line class="cls-3" x1="202.6296" y1="196.7719" x2="187.4103" y2="170.4114"/><path class="cls-3" d="M202.63,196.7719a28.4,28.4,0,0,0,24.5947,14.2"/><line class="cls-3" x1="178.0349" y1="210.9716" x2="162.8157" y2="184.6111"/><path class="cls-3" d="M162.8157,184.6111a56.7989,56.7989,0,0,0-90.4358-10.65"/><path class="cls-3" d="M113.6263,14.2143a85.1984,85.1984,0,0,0,0,170.3968"/><path class="cls-3" d="M138.221,198.8108a28.4,28.4,0,0,0-24.5947-14.2"/><line class="cls-3" x1="153.4402" y1="225.1713" x2="138.221" y2="198.8108"/><line class="cls-3" x1="153.4402" y1="225.1713" x2="138.221" y2="198.8108"/><path class="cls-3" d="M147.6342,215.115a113.5979,113.5979,0,0,0-34.0079,81.055"/><path class="cls-3" d="M227.2242-12.1462a28.4,28.4,0,0,0-24.5947,14.2"/><line class="cls-3" x1="202.6296" y1="2.0535" x2="187.4103" y2="28.414"/><line class="cls-3" x1="202.6296" y1="196.7719" x2="187.4103" y2="170.4114"/><path class="cls-3" d="M202.63,196.7719a28.4,28.4,0,0,0,24.5947,14.2"/><line class="cls-3" x1="178.0349" y1="210.9716" x2="162.8157" y2="184.6111"/><path class="cls-3" d="M162.8157,184.6111a56.7989,56.7989,0,0,0-90.4358-10.65"/><path class="cls-3" d="M113.6263,14.2143a85.1984,85.1984,0,0,0,0,170.3968"/><path class="cls-3" d="M138.221,198.8108a28.4,28.4,0,0,0-24.5947-14.2"/><line class="cls-3" x1="153.4402" y1="225.1713" x2="138.221" y2="198.8108"/><line class="cls-3" x1="153.4402" y1="225.1713" x2="138.221" y2="198.8108"/><path class="cls-3" d="M147.6342,215.115a113.5979,113.5979,0,0,0-34.0079,81.055"/><path class="cls-3" d="M227.2242-12.1462a28.4,28.4,0,0,0-24.5947,14.2"/><line class="cls-3" x1="202.6296" y1="2.0535" x2="187.4103" y2="28.414"/><line class="cls-3" x1="202.6296" y1="196.7719" x2="187.4103" y2="170.4114"/><path class="cls-3" d="M202.63,196.7719a28.4,28.4,0,0,0,24.5947,14.2"/><line class="cls-3" x1="178.0349" y1="210.9716" x2="162.8157" y2="184.6111"/><path class="cls-3" d="M162.8157,184.6111a56.7989,56.7989,0,0,0-90.4358-10.65"/><path class="cls-3" d="M113.6263,14.2143a85.1984,85.1984,0,0,0,0,170.3968"/><path class="cls-3" d="M138.221,198.8108a28.4,28.4,0,0,0-24.5947-14.2"/><line class="cls-3" x1="153.4402" y1="225.1713" x2="138.221" y2="198.8108"/><line class="cls-3" x1="153.4402" y1="225.1713" x2="138.221" y2="198.8108"/><path class="cls-3" d="M147.6342,215.115a113.5979,113.5979,0,0,0-34.0079,81.055"/><path class="cls-3" d="M227.2242-12.1462a28.4,28.4,0,0,0-24.5947,14.2"/><line class="cls-3" x1="202.6296" y1="2.0535" x2="187.4103" y2="28.414"/><line class="cls-3" x1="202.6296" y1="196.7719" x2="187.4103" y2="170.4114"/><path class="cls-3" d="M202.63,196.7719a28.4,28.4,0,0,0,24.5947,14.2"/><line class="cls-3" x1="178.0349" y1="210.9716" x2="162.8157" y2="184.6111"/><path class="cls-3" d="M162.8157,184.6111a56.7989,56.7989,0,0,0-90.4358-10.65"/><path class="cls-3" d="M113.6263,14.2143a85.1984,85.1984,0,0,0,0,170.3968"/><path class="cls-3" d="M138.221,198.8108a28.4,28.4,0,0,0-24.5947-14.2"/><line class="cls-3" x1="153.4402" y1="225.1713" x2="138.221" y2="198.8108"/><line class="cls-3" x1="153.4402" y1="225.1713" x2="138.221" y2="198.8108"/><path class="cls-3" d="M147.6342,215.115a113.5979,113.5979,0,0,0-34.0079,81.055"/><path class="cls-3" d="M227.2242-12.1462a28.4,28.4,0,0,0-24.5947,14.2"/><line class="cls-3" x1="202.6296" y1="2.0535" x2="187.4103" y2="28.414"/><line class="cls-3" x1="202.6296" y1="196.7719" x2="187.4103" y2="170.4114"/><path class="cls-3" d="M202.63,196.7719a28.4,28.4,0,0,0,24.5947,14.2"/><line class="cls-3" x1="178.0349" y1="210.9716" x2="162.8157" y2="184.6111"/><path class="cls-3" d="M162.8157,184.6111a56.7989,56.7989,0,0,0-90.4358-10.65"/><path class="cls-3" d="M113.6263,14.2143a85.1984,85.1984,0,0,0,0,170.3968"/><path class="cls-3" d="M138.221,198.8108a28.4,28.4,0,0,0-24.5947-14.2"/><line class="cls-3" x1="153.4402" y1="225.1713" x2="138.221" y2="198.8108"/><line class="cls-3" x1="153.4402" y1="225.1713" x2="138.221" y2="198.8108"/><path class="cls-3" d="M147.6342,215.115a113.5979,113.5979,0,0,0-34.0079,81.055"/><path class="cls-3" d="M227.2242-12.1462a28.4,28.4,0,0,0-24.5947,14.2"/><line class="cls-3" x1="202.6296" y1="2.0535" x2="187.4103" y2="28.414"/><line class="cls-3" x1="202.6296" y1="196.7719" x2="187.4103" y2="170.4114"/><path class="cls-3" d="M202.63,196.7719a28.4,28.4,0,0,0,24.5947,14.2"/><line class="cls-3" x1="178.0349" y1="210.9716" x2="162.8157" y2="184.6111"/><path class="cls-3" d="M162.8157,184.6111a56.7989,56.7989,0,0,0-90.4358-10.65"/><path class="cls-3" d="M113.6263,14.2143a85.1984,85.1984,0,0,0,0,170.3968"/><path class="cls-3" d="M138.221,198.8108a28.4,28.4,0,0,0-24.5947-14.2"/><line class="cls-3" x1="153.4402" y1="225.1713" x2="138.221" y2="198.8108"/><line class="cls-3" x1="153.4402" y1="225.1713" x2="138.221" y2="198.8108"/><path class="cls-3" d="M147.6342,215.115a113.5979,113.5979,0,0,0-34.0079,81.055"/><path class="cls-3" d="M227.2242-12.1462a28.4,28.4,0,0,0-24.5947,14.2"/><line class="cls-3" x1="202.6296" y1="2.0535" x2="187.4103" y2="28.414"/><line class="cls-3" x1="202.6296" y1="196.7719" x2="187.4103" y2="170.4114"/><path class="cls-3" d="M202.63,196.7719a28.4,28.4,0,0,0,24.5947,14.2"/><line class="cls-3" x1="178.0349" y1="210.9716" x2="162.8157" y2="184.6111"/><path class="cls-3" d="M162.8157,184.6111a56.7989,56.7989,0,0,0-90.4358-10.65"/><path class="cls-3" d="M113.6263,14.2143a85.1984,85.1984,0,0,0,0,170.3968"/><path class="cls-3" d="M138.221,198.8108a28.4,28.4,0,0,0-24.5947-14.2"/><line class="cls-3" x1="153.4402" y1="225.1713" x2="138.221" y2="198.8108"/><line class="cls-3" x1="153.4402" y1="225.1713" x2="138.221" y2="198.8108"/><path class="cls-3" d="M147.6342,215.115a113.5979,113.5979,0,0,0-34.0079,81.055"/><path class="cls-3" d="M227.2242-12.1462a28.4,28.4,0,0,0-24.5947,14.2"/><line class="cls-3" x1="202.6296" y1="2.0535" x2="187.4103" y2="28.414"/><line class="cls-3" x1="202.6296" y1="196.7719" x2="187.4103" y2="170.4114"/><path class="cls-3" d="M202.63,196.7719a28.4,28.4,0,0,0,24.5947,14.2"/><line class="cls-3" x1="178.0349" y1="210.9716" x2="162.8157" y2="184.6111"/><path class="cls-3" d="M162.8157,184.6111a56.7989,56.7989,0,0,0-90.4358-10.65"/><path class="cls-3" d="M113.6263,14.2143a85.1984,85.1984,0,0,0,0,170.3968"/><path class="cls-3" d="M138.221,198.8108a28.4,28.4,0,0,0-24.5947-14.2"/><line class="cls-3" x1="153.4402" y1="225.1713" x2="138.221" y2="198.8108"/><line class="cls-3" x1="153.4402" y1="225.1713" x2="138.221" y2="198.8108"/><path class="cls-3" d="M147.6342,215.115a113.5979,113.5979,0,0,0-34.0079,81.055"/><path class="cls-3" d="M227.2242-12.1462a28.4,28.4,0,0,0-24.5947,14.2"/><line class="cls-3" x1="202.6296" y1="2.0535" x2="187.4103" y2="28.414"/><line class="cls-3" x1="202.6296" y1="196.7719" x2="187.4103" y2="170.4114"/><path class="cls-3" d="M202.63,196.7719a28.4,28.4,0,0,0,24.5947,14.2"/><line class="cls-3" x1="178.0349" y1="210.9716" x2="162.8157" y2="184.6111"/><path class="cls-3" d="M162.8157,184.6111a56.7989,56.7989,0,0,0-90.4358-10.65"/><path class="cls-3" d="M113.6263,14.2143a85.1984,85.1984,0,0,0,0,170.3968"/><path class="cls-3" d="M138.221,198.8108a28.4,28.4,0,0,0-24.5947-14.2"/><line class="cls-3" x1="153.4402" y1="225.1713" x2="138.221" y2="198.8108"/><line class="cls-3" x1="153.4402" y1="225.1713" x2="138.221" y2="198.8108"/><path class="cls-3" d="M147.6342,215.115a113.5979,113.5979,0,0,0-34.0079,81.055"/><path class="cls-3" d="M227.2242-12.1462a28.4,28.4,0,0,0-24.5947,14.2"/><line class="cls-3" x1="202.6296" y1="2.0535" x2="187.4103" y2="28.414"/><line class="cls-3" x1="202.6296" y1="196.7719" x2="187.4103" y2="170.4114"/><path class="cls-3" d="M202.63,196.7719a28.4,28.4,0,0,0,24.5947,14.2"/><line class="cls-3" x1="178.0349" y1="210.9716" x2="162.8157" y2="184.6111"/><path class="cls-3" d="M162.8157,184.6111a56.7989,56.7989,0,0,0-90.4358-10.65"/><path class="cls-3" d="M113.6263,14.2143a85.1984,85.1984,0,0,0,0,170.3968"/><path class="cls-3" d="M138.221,198.8108a28.4,28.4,0,0,0-24.5947-14.2"/><line class="cls-3" x1="153.4402" y1="225.1713" x2="138.221" y2="198.8108"/><line class="cls-3" x1="153.4402" y1="225.1713" x2="138.221" y2="198.8108"/><path class="cls-3" d="M147.6342,215.115a113.5979,113.5979,0,0,0-34.0079,81.055"/><line class="cls-3" x1="238.025" y1="354.1329" x2="238.025" y2="380.6589"/><line class="cls-3" x1="68.9659" y1="420.472" x2="74.8038" y2="420.472"/><line class="cls-3" x1="144.0272" y1="383.4727" x2="144.0272" y2="383.4727"/><path class="cls-3" d="M26.22,420.472a113.5448,113.5448,0,0,1,117.8076-36.9993"/><path class="cls-3" d="M227.2241,381.3683a85.2444,85.2444,0,0,0,10.8009-.7094"/><path class="cls-3" d="M238.025,409.1338a113.4269,113.4269,0,0,1-41.2015-3.5093"/><path class="cls-3" d="M113.6266,296.17a113.5954,113.5954,0,0,0,34.0075,81.0549"/><path class="cls-3" d="M113.6266,296.17a113.611,113.611,0,0,1-4.1436,30.4006A113.5473,113.5473,0,0,1-10.7685,409.1588"/><path class="cls-3" d="M63.4642,352.9033a85.454,85.454,0,0,1-22.2018,17.8038"/><path class="cls-3" d="M85.2269,296.17a84.7767,84.7767,0,0,1-21.7627,56.7335"/><path class="cls-3" d="M41.2624,370.7071A84.7692,84.7692,0,0,1,.0285,381.3683a28.0729,28.0729,0,0,0-10.797,2.3905"/><path class="cls-3" d="M238.025,325.5295A85.007,85.007,0,0,0,153.44,367.1688l-9.4132,16.3039"/><path class="cls-3" d="M72.3928,418.39a84.7692,84.7692,0,0,1,41.2338-10.6612,28.3994,28.3994,0,0,0,24.5943-14.2l5.8063-10.0566"/><path class="cls-3" d="M72.3928,418.39c-1.1715.65-2.29,1.38-3.4269,2.082"/><path class="cls-3" d="M72.3928,418.39l-.0132-.0112"/><path class="cls-3" d="M178.0347,381.3683,162.816,407.7288a56.8084,56.8084,0,0,1-10.0454,12.7432"/><path class="cls-3" d="M238.025,354.1329a56.5689,56.5689,0,0,0-59.99,27.2354"/><path class="cls-3" d="M41.2624,370.7071a56.6338,56.6338,0,0,0-52.0308-16.58"/><path class="cls-3" d="M41.2624,370.7071l.0125.0112"/><path class="cls-3" d="M63.4642,239.4371c.0211-.0237.0461-.0422.0672-.0659"/><path class="cls-3" d="M63.4642,239.4371a85.0619,85.0619,0,0,1-74.2327,27.4648"/><path class="cls-3" d="M63.4642,352.9033a85.06,85.06,0,0,0-74.2327-27.4648"/><path class="cls-3" d="M63.4642,352.9033c.0211.0237.0461.0422.0672.0659"/><path class="cls-3" d="M139.7564-24.9642a113.4333,113.4333,0,0,0,7.8777,8.6748"/><path class="cls-3" d="M-10.7685,15.644a113.618,113.618,0,0,0,98.27-40.6082"/><line class="cls-3" x1="196.8241" y1="12.1096" x2="196.8235" y2="12.1096"/><path class="cls-3" d="M196.8241,12.11A113.4233,113.4233,0,0,0,238.025,15.619"/><line class="cls-3" x1="196.8235" y1="186.7153" x2="196.8235" y2="186.7153"/><path class="cls-3" d="M196.8235,186.7153a113.4409,113.4409,0,0,1,41.2015-3.5087"/><path class="cls-3" d="M.0325-12.1551A84.6639,84.6639,0,0,0,44.7941-24.9642"/><path class="cls-3" d="M-10.7685-9.7626A28.0674,28.0674,0,0,1,.0325-12.1551"/><path class="cls-3" d="M41.2624,221.6326a56.81,56.81,0,0,1-12.8342,10.1291,56.3228,56.3228,0,0,1-39.1967,6.3291"/><path class="cls-3" d="M41.2624,221.6326l.0125-.0112"/><path class="cls-3" d="M113.6266,296.17a113.5965,113.5965,0,0,1,34.0075-81.0549"/><path class="cls-3" d="M-10.7685,183.3049c3.5917-.3435,7.1815-.7325,10.797-.7325A113.598,113.598,0,0,1,113.6266,296.17"/><path class="cls-3" d="M238.025,266.8109A85.0081,85.0081,0,0,1,153.44,225.1716L138.221,198.8111a28.4,28.4,0,0,0-24.5943-14.2A84.7692,84.7692,0,0,1,72.3928,173.95"/><path class="cls-3" d="M50.1916,156.1459A85.4618,85.4618,0,0,0,72.3928,173.95"/><path class="cls-3" d="M50.1916,156.1459A84.8292,84.8292,0,0,1,50.19,42.681"/><path class="cls-3" d="M50.19,42.681A85.4545,85.4545,0,0,1,72.3934,24.8759"/><path class="cls-3" d="M72.3934,24.8759A84.7672,84.7672,0,0,1,113.6266,14.214,28.3994,28.3994,0,0,0,138.221.0145l14.4217-24.9787"/><path class="cls-3" d="M178.0347-12.1465,162.816,14.214a56.8118,56.8118,0,0,1-10.14,12.8473,56.7983,56.7983,0,0,1-80.2822-2.1855"/><path class="cls-3" d="M72.3934,24.8759,72.38,24.864"/><path class="cls-3" d="M178.0347-12.1465a56.7689,56.7689,0,0,1,10.114-12.8177"/><path class="cls-3" d="M50.19,42.681c-.0211-.0237-.0455-.0435-.0666-.0672"/><path class="cls-3" d="M196.8241,12.11c2.74-4.7455,5.8056-10.056,5.8056-10.056a28.3992,28.3992,0,0,1,24.5943-14.2"/><path class="cls-3" d="M196.8241,12.11,187.41,28.4142a85.2045,85.2045,0,0,1-16.985,20.9037A85.1958,85.1958,0,0,1,50.19,42.681"/><path class="cls-3" d="M227.2241-12.1465a85.2444,85.2444,0,0,0,10.8009-.7094"/><path class="cls-3" d="M178.0347,210.9714,162.816,184.6109A56.7949,56.7949,0,0,0,72.3928,173.95"/><path class="cls-3" d="M72.38,173.9616l.0132-.0119"/><path class="cls-3" d="M238.025,238.0948a56.6206,56.6206,0,0,1-59.99-27.1233"/><path class="cls-3" d="M196.8235,186.7153,187.41,170.4114A85.18,85.18,0,0,0,50.1916,156.1459"/><path class="cls-3" d="M196.8235,186.7153l5.8063,10.0566a28.3986,28.3986,0,0,0,24.5943,14.2"/><path class="cls-3" d="M50.1916,156.1459c-.0211.0237-.0475.0422-.0686.0659"/><path class="cls-3" d="M227.2241,210.9714a85.2444,85.2444,0,0,1,10.8009.7094"/><path class="cls-3" d="M63.4642,239.4371A84.7751,84.7751,0,0,1,85.2269,296.17"/><path class="cls-3" d="M63.4642,239.4371a85.4564,85.4564,0,0,0-22.2018-17.8044"/><path class="cls-3" d="M41.2624,221.6326A84.7692,84.7692,0,0,0,.0285,210.9714a28.0729,28.0729,0,0,1-10.797-2.3905"/></g></pattern></defs><title>bck</title><rect class="cls-4" width="800" height="800"/></svg>